<svg width="2284" height="1831" viewBox="0 0 2284 1831" fill="none" xmlns="http://www.w3.org/2000/svg">
<path d="M1104.77 993.299C1071.47 1330.69 635.017 1645.17 104.173 1130.66C431.966 920.779 724.235 484.797 1104.77 993.299Z" fill="black"/>
<path d="M1035.15 1024.32C1373.79 961.435 1627.93 612.58 1061.24 119.721C877.124 469.67 699.917 649.717 1035.15 1024.32Z" fill="black"/>
<path d="M1093.98 1005.5C894.755 1163.45 873.612 1566.32 1413.52 1692.21C1413.52 1460.86 1620.02 1099.45 1093.98 1005.5Z" fill="black"/>
<path d="M1097.17 1035.97C1133.83 664.615 1614.22 318.471 2198.52 884.779C1837.72 1115.8 1532.46 1363.32 1097.17 1035.97Z" fill="black"/>
<path d="M1138.32 940.454C1122.32 1102.52 912.67 1253.59 657.674 1006.44C815.133 905.618 955.527 696.19 1138.32 940.454Z" fill="#D4F236"/>
<path d="M1104.89 955.351C1267.56 925.145 1389.64 757.569 1117.42 520.819C1028.98 688.92 943.859 775.408 1104.89 955.351Z" fill="#D4F236"/>
<path d="M1133.15 946.309C1037.45 1022.18 1027.29 1215.7 1286.64 1276.18C1286.64 1165.05 1385.84 991.44 1133.15 946.309Z" fill="#D4F236"/>
<path d="M1134.67 960.948C1152.28 782.563 1383.05 616.288 1663.72 888.321C1490.4 999.292 1343.77 1118.19 1134.67 960.948Z" fill="#D4F236"/>
</svg>
